<?xml version="1.0" encoding="utf-8"?>
<!-- Generator: Adobe Illustrator 15.1.0, SVG Export Plug-In . SVG Version: 6.00 Build 0)  -->
<!DOCTYPE svg PUBLIC "-//W3C//DTD SVG 1.1//EN" "http://www.w3.org/Graphics/SVG/1.1/DTD/svg11.dtd" [
	<!ENTITY ns_extend "http://ns.adobe.com/Extensibility/1.0/">
	<!ENTITY ns_ai "http://ns.adobe.com/AdobeIllustrator/10.0/">
	<!ENTITY ns_graphs "http://ns.adobe.com/Graphs/1.0/">
	<!ENTITY ns_vars "http://ns.adobe.com/Variables/1.0/">
	<!ENTITY ns_imrep "http://ns.adobe.com/ImageReplacement/1.0/">
	<!ENTITY ns_sfw "http://ns.adobe.com/SaveForWeb/1.0/">
	<!ENTITY ns_custom "http://ns.adobe.com/GenericCustomNamespace/1.0/">
	<!ENTITY ns_adobe_xpath "http://ns.adobe.com/XPath/1.0/">
]>
<svg version="1.1" id="Layer_1" xmlns:x="&ns_extend;" xmlns:i="&ns_ai;" xmlns:graph="&ns_graphs;"
	 xmlns="http://www.w3.org/2000/svg" xmlns:xlink="http://www.w3.org/1999/xlink" x="0px" y="0px" width="21.07px"
	 height="20.133px" viewBox="0 0 21.07 20.133" enable-background="new 0 0 21.07 20.133" xml:space="preserve">
<metadata>
	<sfw  xmlns="&ns_sfw;">
		<slices></slices>
		<sliceSourceBounds  width="21.07" height="20.134" x="948.965" y="530.433" bottomLeftOrigin="true"></sliceSourceBounds>
	</sfw>
</metadata>
<g>
	<path id="LinkedIn" d="M21.07,12.342v7.791h-4.515v-7.271c0-1.821-0.654-3.07-2.29-3.07c-1.246,0-1.99,0.839-2.316,1.65
		c-0.119,0.293-0.15,0.695-0.15,1.104v7.588H7.283c0,0,0.059-12.312,0-13.585h4.516v1.924c-0.01,0.015-0.02,0.03-0.028,0.044h0.028
		V8.472c0.602-0.923,1.673-2.244,4.071-2.244C18.841,6.228,21.07,8.172,21.07,12.342z M2.557,0C1.011,0,0,1.012,0,2.344
		C0,3.65,0.982,4.69,2.497,4.69h0.031c1.574,0,2.554-1.04,2.554-2.347C5.052,1.012,4.102,0,2.557,0z M0.27,20.133h4.515V6.548H0.27
		V20.133z"/>
</g>
</svg>
