<?xml version="1.0" encoding="utf-8"?>
<!-- Generator: Adobe Illustrator 15.1.0, SVG Export Plug-In . SVG Version: 6.00 Build 0)  -->
<!DOCTYPE svg PUBLIC "-//W3C//DTD SVG 1.1//EN" "http://www.w3.org/Graphics/SVG/1.1/DTD/svg11.dtd" [
	<!ENTITY ns_extend "http://ns.adobe.com/Extensibility/1.0/">
	<!ENTITY ns_ai "http://ns.adobe.com/AdobeIllustrator/10.0/">
	<!ENTITY ns_graphs "http://ns.adobe.com/Graphs/1.0/">
	<!ENTITY ns_vars "http://ns.adobe.com/Variables/1.0/">
	<!ENTITY ns_imrep "http://ns.adobe.com/ImageReplacement/1.0/">
	<!ENTITY ns_sfw "http://ns.adobe.com/SaveForWeb/1.0/">
	<!ENTITY ns_custom "http://ns.adobe.com/GenericCustomNamespace/1.0/">
	<!ENTITY ns_adobe_xpath "http://ns.adobe.com/XPath/1.0/">
]>
<svg version="1.1" id="Layer_1" xmlns:x="&ns_extend;" xmlns:i="&ns_ai;" xmlns:graph="&ns_graphs;"
	 xmlns="http://www.w3.org/2000/svg" xmlns:xlink="http://www.w3.org/1999/xlink" x="0px" y="0px" width="109.422px"
	 height="49.05px" viewBox="0 0 109.422 49.05" enable-background="new 0 0 109.422 49.05" xml:space="preserve">
<metadata>
	<sfw  xmlns="&ns_sfw;">
		<slices></slices>
		<sliceSourceBounds  width="109.425" height="49.05" x="904.789" y="515.975" bottomLeftOrigin="true"></sliceSourceBounds>
	</sfw>
</metadata>
<g>
	<path fill="#FFFFFF" d="M97.702,36.242c-6.459,0-11.714-5.258-11.714-11.723c0-6.458,5.255-11.714,11.714-11.714
		c6.463,0,11.723,5.256,11.723,11.714C109.422,30.984,104.165,36.242,97.702,36.242z M97.702,17.643
		c-3.791,0-6.878,3.085-6.878,6.877c0,3.794,3.087,6.879,6.878,6.879c3.793,0,6.879-3.085,6.879-6.879
		C104.581,20.728,101.495,17.643,97.702,17.643z"/>
	<polygon fill="#FFFFFF" points="32.082,36.242 24.527,19.637 20.577,28.335 18.416,33.083 16.979,36.242 11.77,36.242 
		22.366,12.807 26.605,12.807 37.285,36.242 	"/>
	<g>
		<g>
			<polygon fill="#FFFFFF" points="4.75,4.74 4.75,44.31 49.05,44.31 49.05,49.05 0,49.05 0,0 49.05,0 49.05,4.74 			"/>
		</g>
	</g>
	<polygon fill="#FFFFFF" points="69.361,36.242 61.809,19.637 57.857,28.335 55.695,33.083 54.259,36.242 49.05,36.242 
		59.646,12.807 63.885,12.807 74.564,36.242 	"/>
</g>
</svg>
