<?xml version="1.0" encoding="utf-8"?>
<!-- Generator: Adobe Illustrator 15.1.0, SVG Export Plug-In . SVG Version: 6.00 Build 0)  -->
<!DOCTYPE svg PUBLIC "-//W3C//DTD SVG 1.1//EN" "http://www.w3.org/Graphics/SVG/1.1/DTD/svg11.dtd" [
	<!ENTITY ns_extend "http://ns.adobe.com/Extensibility/1.0/">
	<!ENTITY ns_ai "http://ns.adobe.com/AdobeIllustrator/10.0/">
	<!ENTITY ns_graphs "http://ns.adobe.com/Graphs/1.0/">
	<!ENTITY ns_vars "http://ns.adobe.com/Variables/1.0/">
	<!ENTITY ns_imrep "http://ns.adobe.com/ImageReplacement/1.0/">
	<!ENTITY ns_sfw "http://ns.adobe.com/SaveForWeb/1.0/">
	<!ENTITY ns_custom "http://ns.adobe.com/GenericCustomNamespace/1.0/">
	<!ENTITY ns_adobe_xpath "http://ns.adobe.com/XPath/1.0/">
]>
<svg version="1.1" id="Layer_1" xmlns:x="&ns_extend;" xmlns:i="&ns_ai;" xmlns:graph="&ns_graphs;"
	 xmlns="http://www.w3.org/2000/svg" xmlns:xlink="http://www.w3.org/1999/xlink" x="0px" y="0px" width="22.997px"
	 height="34.496px" viewBox="0 0 22.997 34.496" enable-background="new 0 0 22.997 34.496" xml:space="preserve">
<metadata>
	<sfw  xmlns="&ns_sfw;">
		<slices></slices>
		<sliceSourceBounds  width="22.997" height="34.496" x="948.001" y="523.252" bottomLeftOrigin="true"></sliceSourceBounds>
	</sfw>
</metadata>
<g>
	<g>
		<g>
			<path fill="#010101" d="M11.499,0C5.158,0,0,5.156,0,11.492v11.511c0,6.336,5.158,11.492,11.499,11.492
				c6.341,0,11.498-5.156,11.498-11.492V11.492C22.997,5.156,17.838,0,11.499,0z M21.719,23.003c0,5.633-4.586,10.215-10.221,10.215
				c-5.636,0-10.22-4.582-10.22-10.215V11.492c0-5.632,4.585-10.215,10.221-10.215S21.72,5.859,21.72,11.492L21.719,23.003
				L21.719,23.003z"/>
			<path fill="#010101" d="M11.499,3.832c-0.353,0-0.639,0.286-0.639,0.64v5.784c0,0.354,0.286,0.639,0.639,0.639
				s0.639-0.285,0.639-0.639V4.472C12.137,4.118,11.852,3.832,11.499,3.832z"/>
		</g>
	</g>
</g>
</svg>
