<?xml version="1.0" encoding="utf-8"?>
<!-- Generator: Adobe Illustrator 15.1.0, SVG Export Plug-In . SVG Version: 6.00 Build 0)  -->
<!DOCTYPE svg PUBLIC "-//W3C//DTD SVG 1.1//EN" "http://www.w3.org/Graphics/SVG/1.1/DTD/svg11.dtd" [
	<!ENTITY ns_extend "http://ns.adobe.com/Extensibility/1.0/">
	<!ENTITY ns_ai "http://ns.adobe.com/AdobeIllustrator/10.0/">
	<!ENTITY ns_graphs "http://ns.adobe.com/Graphs/1.0/">
	<!ENTITY ns_vars "http://ns.adobe.com/Variables/1.0/">
	<!ENTITY ns_imrep "http://ns.adobe.com/ImageReplacement/1.0/">
	<!ENTITY ns_sfw "http://ns.adobe.com/SaveForWeb/1.0/">
	<!ENTITY ns_custom "http://ns.adobe.com/GenericCustomNamespace/1.0/">
	<!ENTITY ns_adobe_xpath "http://ns.adobe.com/XPath/1.0/">
]>
<svg version="1.1" id="Layer_1" xmlns:x="&ns_extend;" xmlns:i="&ns_ai;" xmlns:graph="&ns_graphs;"
	 xmlns="http://www.w3.org/2000/svg" xmlns:xlink="http://www.w3.org/1999/xlink" x="0px" y="0px" width="22.997px"
	 height="15.85px" viewBox="0 0 22.997 15.85" enable-background="new 0 0 22.997 15.85" xml:space="preserve">
<metadata>
	<sfw  xmlns="&ns_sfw;">
		<slices></slices>
		<sliceSourceBounds  width="22.997" height="22.997" x="948.001" y="528.896" bottomLeftOrigin="true"></sliceSourceBounds>
	</sfw>
</metadata>
<g id="Icons_1_">
	<path id="Twitter__x28_alt_x29__1_" fill="#FFFFFF" d="M20.401,7.053c1.292-0.105,2.165-0.715,2.508-1.493
		c-0.469,0.273-1.914,0.602-2.713,0.295c-0.037-0.168-0.089-0.379-0.126-0.523c-0.61-2.229-2.7-4.036-4.882-3.807
		c0.18-0.072,0.357-0.156,0.531-0.198c0.242-0.105,1.66-0.338,1.435-0.819c-0.188-0.452-1.913,0.336-2.233,0.431
		c0.433-0.168,1.132-0.452,1.205-0.936c-0.642,0.104-1.293,0.41-1.787,0.859c0.18-0.197,0.32-0.431,0.348-0.683
		c-1.75,1.114-2.78,3.374-3.605,5.55c-0.646-0.631-1.23-1.136-1.745-1.388C7.886,3.553,6.162,2.743,3.44,1.724
		c-0.091,0.914,0.439,2.104,1.963,2.89C5.072,4.562,4.479,4.668,3.995,4.794c0.189,1.04,0.836,1.881,2.575,2.278
		c-0.8,0.054-1.21,0.232-1.578,0.643C5.35,8.419,6.238,9.26,7.82,9.081c-1.761,0.757-0.72,2.176,0.714,1.976
		C6.085,13.59,2.228,13.391,0,11.288c5.791,7.883,18.383,4.667,20.258-2.942c1.41,0.021,2.234-0.484,2.738-1.041
		C22.198,7.452,21.021,7.305,20.401,7.053z"/>
	<path id="Facebook_1_" display="none" fill="#FFFFFF" d="M8.556,0.988c0,0.59,0,3.176,0,3.176H6.238V8.02h2.318v11.509h4.766V8.02
		h3.195c0,0,0.305-1.858,0.446-3.889c-0.42,0-3.625,0-3.625,0s0-2.25,0-2.628c0-0.41,0.52-0.946,1.041-0.946
		c0.504,0,1.597,0,2.596,0c0-0.525,0-2.354,0-4.025c-1.346,0-2.864,0-3.537,0C8.445-3.469,8.556,0.41,8.556,0.988z"/>
</g>
</svg>
