<?xml version="1.0" encoding="utf-8"?>
<!-- Generator: Adobe Illustrator 15.1.0, SVG Export Plug-In . SVG Version: 6.00 Build 0)  -->
<!DOCTYPE svg PUBLIC "-//W3C//DTD SVG 1.1//EN" "http://www.w3.org/Graphics/SVG/1.1/DTD/svg11.dtd" [
	<!ENTITY ns_extend "http://ns.adobe.com/Extensibility/1.0/">
	<!ENTITY ns_ai "http://ns.adobe.com/AdobeIllustrator/10.0/">
	<!ENTITY ns_graphs "http://ns.adobe.com/Graphs/1.0/">
	<!ENTITY ns_vars "http://ns.adobe.com/Variables/1.0/">
	<!ENTITY ns_imrep "http://ns.adobe.com/ImageReplacement/1.0/">
	<!ENTITY ns_sfw "http://ns.adobe.com/SaveForWeb/1.0/">
	<!ENTITY ns_custom "http://ns.adobe.com/GenericCustomNamespace/1.0/">
	<!ENTITY ns_adobe_xpath "http://ns.adobe.com/XPath/1.0/">
]>
<svg version="1.1" id="Layer_1" xmlns:x="&ns_extend;" xmlns:i="&ns_ai;" xmlns:graph="&ns_graphs;"
	 xmlns="http://www.w3.org/2000/svg" xmlns:xlink="http://www.w3.org/1999/xlink" x="0px" y="0px" width="32.145px"
	 height="22.998px" viewBox="0 0 32.145 22.998" enable-background="new 0 0 32.145 22.998" xml:space="preserve">
<metadata>
	<sfw  xmlns="&ns_sfw;">
		<slices></slices>
		<sliceSourceBounds  width="32.143" height="22.998" x="943.428" y="529.001" bottomLeftOrigin="true"></sliceSourceBounds>
	</sfw>
</metadata>
<g>
	<path fill="#FFFFFF" d="M16.842,22.998C16.841,22.998,16.842,22.998,16.842,22.998c-3.654,0-7.635-0.116-11.826-0.343
		c-2.478-0.135-4.397-2.045-4.672-4.645c-0.458-4.343-0.458-8.726,0-13.029c0.272-2.576,2.19-4.486,4.667-4.641
		c7.229-0.455,14.669-0.455,22.122,0c2.505,0.151,4.38,2.016,4.669,4.64c0.455,4.153,0.456,8.538,0.001,13.03
		c-0.265,2.598-2.139,4.465-4.663,4.645C23.962,22.882,20.497,22.998,16.842,22.998z M15.987,1.234c-3.644,0-7.311,0.114-10.9,0.341
		C3.195,1.692,1.781,3.115,1.57,5.114c-0.447,4.216-0.447,8.512,0,12.769c0.212,2.015,1.623,3.437,3.511,3.541
		c4.17,0.224,8.128,0.339,11.76,0.339c3.626,0,7.062-0.113,10.21-0.338c1.905-0.139,3.32-1.561,3.521-3.539
		c0.448-4.406,0.448-8.701,0.001-12.77c-0.221-2.004-1.634-3.428-3.516-3.541C23.356,1.348,19.631,1.234,15.987,1.234z
		 M12.927,7.125v8.474l8.136-4.207L12.927,7.125z"/>
</g>
</svg>
